<?xml version="1.0" encoding="UTF-8" standalone="no"?>
<svg
   viewBox="0 0 400 400"
   width="400"
   height="400"
   version="1.1"
   id="svg100"
   sodipodi:docname="VoxRefiner_subtitile_path_Logo.svg"
   inkscape:version="1.2.2 (b0a8486541, 2022-12-01)"
   inkscape:export-filename="VoxRefiner_subtitile_Logo.webp"
   inkscape:export-xdpi="491.51999"
   inkscape:export-ydpi="491.51999"
   xmlns:inkscape="http://www.inkscape.org/namespaces/inkscape"
   xmlns:sodipodi="http://sodipodi.sourceforge.net/DTD/sodipodi-0.dtd"
   xmlns="http://www.w3.org/2000/svg"
   xmlns:svg="http://www.w3.org/2000/svg">
  <sodipodi:namedview
     id="namedview102"
     pagecolor="#ffffff"
     bordercolor="#000000"
     borderopacity="0.25"
     inkscape:showpageshadow="2"
     inkscape:pageopacity="0.0"
     inkscape:pagecheckerboard="0"
     inkscape:deskcolor="#d1d1d1"
     showgrid="false"
     inkscape:zoom="1.668772"
     inkscape:cx="201.64528"
     inkscape:cy="229.21046"
     inkscape:window-width="1280"
     inkscape:window-height="1341"
     inkscape:window-x="1280"
     inkscape:window-y="32"
     inkscape:window-maximized="1"
     inkscape:current-layer="text98" />
  <defs
     id="defs45">
    <linearGradient
       id="greenGrad"
       x1="0%"
       y1="0%"
       x2="100%"
       y2="0%">
      <stop
         offset="0%"
         style="stop-color:#00FF88;stop-opacity:1"
         id="stop2" />
      <stop
         offset="100%"
         style="stop-color:#00CC66;stop-opacity:1"
         id="stop4" />
    </linearGradient>
    <linearGradient
       id="morphGrad"
       x1="0%"
       y1="0%"
       x2="100%"
       y2="0%">
      <stop
         offset="0%"
         style="stop-color:#00FF88;stop-opacity:1"
         id="stop7" />
      <stop
         offset="50%"
         style="stop-color:#00EE77;stop-opacity:1"
         id="stop9" />
      <stop
         offset="100%"
         style="stop-color:#00CC66;stop-opacity:1"
         id="stop11" />
    </linearGradient>
    <filter
       id="glow"
       x="-0.055384615"
       y="-0.049315068"
       width="1.1107692"
       height="1.0986301">
      <feGaussianBlur
         stdDeviation="3"
         result="coloredBlur"
         id="feGaussianBlur14" />
      <feMerge
         id="feMerge20">
        <feMergeNode
           in="coloredBlur"
           id="feMergeNode16" />
        <feMergeNode
           in="SourceGraphic"
           id="feMergeNode18" />
      </feMerge>
    </filter>
    <filter
       id="subtleglow"
       x="-0.04556962"
       y="-0.041860465"
       width="1.0911392"
       height="1.0837209">
      <feGaussianBlur
         stdDeviation="1.5"
         result="coloredBlur"
         id="feGaussianBlur23" />
      <feMerge
         id="feMerge29">
        <feMergeNode
           in="coloredBlur"
           id="feMergeNode25" />
        <feMergeNode
           in="SourceGraphic"
           id="feMergeNode27" />
      </feMerge>
    </filter>
    <filter
       id="textglow"
       x="-0.0052679672"
       y="-0.048387097"
       width="1.0105359"
       height="1.0967742">
      <feGaussianBlur
         stdDeviation="0.75"
         result="blur"
         id="feGaussianBlur32" />
      <feComponentTransfer
         in="blur"
         result="softGlow"
         id="feComponentTransfer36">
        <feFuncA
           type="linear"
           slope="0.45"
           id="feFuncA34" />
      </feComponentTransfer>
      <feMerge
         id="feMerge42">
        <feMergeNode
           in="softGlow"
           id="feMergeNode38" />
        <feMergeNode
           in="SourceGraphic"
           id="feMergeNode40" />
      </feMerge>
    </filter>
  </defs>
  <!-- Background carré -->
  <rect
     width="400"
     height="400"
     rx="72"
     fill="#080808"
     id="rect47" />
  <!-- Dot grid -->
  <pattern
     id="dots"
     width="18"
     height="18"
     patternUnits="userSpaceOnUse">
    <circle
       cx="9"
       cy="9"
       r="0.7"
       fill="#181818"
       id="circle49" />
  </pattern>
  <rect
     width="400"
     height="400"
     rx="72"
     fill="url(#dots)"
     id="rect52" />
  <!-- ===================== -->
  <!-- ICON: wave → text     -->
  <!-- Centré verticalement sur y=155, x: 30 à 370 -->
  <!-- ===================== -->
  <!-- === LEFT: onde sonore chaotique === -->
  <g
     filter="url(#glow)"
     id="g70">
    <rect
       x="30"
       y="115"
       width="11"
       height="80"
       rx="5.5"
       fill="url(#morphGrad)"
       id="rect54" />
    <rect
       x="47"
       y="97"
       width="11"
       height="116"
       rx="5.5"
       fill="url(#morphGrad)"
       id="rect56" />
    <rect
       x="64"
       y="130"
       width="11"
       height="50"
       rx="5.5"
       fill="url(#morphGrad)"
       id="rect58" />
    <rect
       x="81"
       y="82"
       width="11"
       height="146"
       rx="5.5"
       fill="url(#morphGrad)"
       id="rect60" />
    <rect
       x="98"
       y="110"
       width="11"
       height="90"
       rx="5.5"
       fill="url(#morphGrad)"
       id="rect62" />
    <rect
       x="115"
       y="90"
       width="11"
       height="130"
       rx="5.5"
       fill="url(#morphGrad)"
       id="rect64" />
    <rect
       x="132"
       y="122"
       width="11"
       height="66"
       rx="5.5"
       fill="url(#morphGrad)"
       id="rect66" />
    <rect
       x="149"
       y="100"
       width="11"
       height="110"
       rx="5.5"
       fill="url(#morphGrad)"
       id="rect68" />
  </g>
  <!-- === TRANSITION: barres qui s'aplatissent === -->
  <g
     filter="url(#subtleglow)"
     id="g82">
    <rect
       x="168"
       y="107"
       width="11"
       height="96"
       rx="5.5"
       fill="url(#morphGrad)"
       opacity="0.95"
       id="rect72" />
    <rect
       x="185"
       y="118"
       width="11"
       height="74"
       rx="5.5"
       fill="url(#morphGrad)"
       opacity="0.88"
       id="rect74" />
    <rect
       x="202"
       y="132"
       width="11"
       height="46"
       rx="5.5"
       fill="url(#morphGrad)"
       opacity="0.80"
       id="rect76" />
    <rect
       x="219"
       y="142"
       width="11"
       height="26"
       rx="5.5"
       fill="url(#morphGrad)"
       opacity="0.72"
       id="rect78" />
    <rect
       x="236"
       y="149"
       width="11"
       height="12"
       rx="5.5"
       fill="url(#morphGrad)"
       opacity="0.65"
       id="rect80" />
  </g>
  <!-- === RIGHT: lignes de texte propres === -->
  <g
     filter="url(#subtleglow)"
     id="g92">
    <rect
       x="258"
       y="118"
       width="112"
       height="11"
       rx="5.5"
       fill="url(#morphGrad)"
       opacity="0.95"
       id="rect84" />
    <rect
       x="258"
       y="143"
       width="112"
       height="11"
       rx="5.5"
       fill="url(#morphGrad)"
       opacity="0.85"
       id="rect86" />
    <rect
       x="258"
       y="168"
       width="112"
       height="11"
       rx="5.5"
       fill="url(#morphGrad)"
       opacity="0.75"
       id="rect88" />
    <rect
       x="258"
       y="193"
       width="70"
       height="11"
       rx="5.5"
       fill="url(#morphGrad)"
       opacity="0.50"
       id="rect90" />
  </g>
  <!-- Séparateur pointillé discret -->
  <line
     x1="250"
     y1="78"
     x2="250"
     y2="232"
     stroke="#00FF88"
     stroke-width="1"
     opacity="0.10"
     stroke-dasharray="4 5"
     id="line94" />
  <!-- ===================== -->
  <!-- WORDMARK              -->
  <!-- ===================== -->
  <g
     aria-label="VoxRefiner"
     id="text96"
     style="font-weight:bold;font-size:48px;font-family:'Noto sans', ubuntu, inter, monospace;-inkscape-font-specification:'Noto sans, ubuntu, inter, monospace, Bold';font-variant-ligatures:no-common-ligatures;letter-spacing:9;text-anchor:middle;fill:url(#greenGrad);filter:url(#textglow)">
    <path
       d="M 60.8521,265.728 49.1881,300 h -7.92 l -11.616,-34.272 h 7.344 l 6.432,20.4 q 0.192,0.528 0.528,1.968 0.384,1.392 0.768,2.976 0.384,1.536 0.528,2.592 0.144,-1.056 0.48,-2.592 0.384,-1.584 0.768,-2.976 0.384,-1.44 0.528,-1.968 l 6.48,-20.4 z"
       id="path214" />
    <path
       d="m 96.444059,286.848 q 0,6.528 -3.456,10.08 -3.408,3.552 -9.312,3.552 -3.648,0 -6.528,-1.584 -2.832,-1.584 -4.464,-4.608 -1.632,-3.072 -1.632,-7.44 0,-6.528 3.408,-10.032 3.408,-3.504 9.36,-3.504 3.696,0 6.528,1.584 2.832,1.584 4.464,4.608 1.632,2.976 1.632,7.344 z m -18.096,0 q 0,3.888 1.248,5.904 1.296,1.968 4.176,1.968 2.832,0 4.08,-1.968 1.296,-2.016 1.296,-5.904 0,-3.888 -1.296,-5.808 -1.248,-1.968 -4.128,-1.968 -2.832,0 -4.128,1.968 -1.248,1.92 -1.248,5.808 z"
       id="path216" />
    <path
       d="m 115.76401,286.608 -8.448,-12.816 h 8.112 l 5.088,8.352 5.136,-8.352 h 8.112 l -8.544,12.816 8.928,13.392 h -8.112 l -5.52,-8.976 -5.52,8.976 h -8.112 z"
       id="path218" />
    <path
       d="m 157.69197,265.728 q 7.008,0 10.32,2.544 3.36,2.544 3.36,7.728 0,2.352 -0.912,4.128 -0.864,1.728 -2.352,2.976 -1.44,1.2 -3.12,1.968 l 10.08,14.928 h -8.064 l -8.16,-13.152 h -3.888 V 300 h -7.248 v -34.272 z m -0.528,5.952 h -2.208 v 9.264 h 2.352 q 3.6,0 5.136,-1.2 1.584,-1.2 1.584,-3.552 0,-2.448 -1.68,-3.456 -1.632,-1.056 -5.184,-1.056 z"
       id="path220" />
    <path
       d="m 198.61196,273.312 q 5.424,0 8.592,3.12 3.168,3.072 3.168,8.784 v 3.456 h -16.896 q 0.096,3.024 1.776,4.752 1.728,1.728 4.752,1.728 2.544,0 4.608,-0.48 2.064,-0.528 4.272,-1.584 v 5.52 q -1.92,0.96 -4.08,1.392 -2.112,0.48 -5.136,0.48 -3.936,0 -6.96,-1.44 -3.024,-1.488 -4.752,-4.464 -1.728,-2.976 -1.728,-7.488 0,-4.608 1.536,-7.632 1.584,-3.072 4.368,-4.608 2.784,-1.536 6.48,-1.536 z m 0.048,5.088 q -2.064,0 -3.456,1.344 -1.344,1.344 -1.584,4.176 h 10.032 q -0.048,-2.4 -1.248,-3.936 -1.2,-1.584 -3.744,-1.584 z"
       id="path222" />
    <path
       d="m 239.67594,279.168 h -6.192 V 300 h -7.152 v -20.832 h -3.936 v -3.456 l 3.936,-1.92 v -1.92 q 0,-3.36 1.104,-5.184 1.152,-1.872 3.216,-2.64 2.112,-0.768 4.944,-0.768 2.112,0 3.792,0.336 1.728,0.336 2.784,0.768 l -1.824,5.232 q -0.816,-0.24 -1.776,-0.432 -0.96,-0.24 -2.208,-0.24 -1.488,0 -2.208,0.912 -0.672,0.912 -0.672,2.304 v 1.632 h 6.192 z"
       id="path224" />
    <path
       d="m 256.3559,263.52 q 1.584,0 2.736,0.768 1.152,0.72 1.152,2.736 0,1.968 -1.152,2.736 -1.152,0.768 -2.736,0.768 -1.632,0 -2.784,-0.768 -1.104,-0.768 -1.104,-2.736 0,-2.016 1.104,-2.736 1.152,-0.768 2.784,-0.768 z m 3.552,10.272 V 300 h -7.152 v -26.208 z"
       id="path226" />
    <path
       d="m 291.27592,273.312 q 4.224,0 6.768,2.304 2.544,2.256 2.544,7.296 V 300 h -7.152 v -15.312 q 0,-2.832 -1.008,-4.224 -1.008,-1.44 -3.216,-1.44 -3.264,0 -4.464,2.256 -1.2,2.208 -1.2,6.384 V 300 h -7.152 v -26.208 h 5.472 l 0.96,3.36 h 0.384 q 1.248,-2.016 3.408,-2.928 2.208,-0.912 4.656,-0.912 z"
       id="path228" />
    <path
       d="m 327.7319,273.312 q 5.424,0 8.592,3.12 3.168,3.072 3.168,8.784 v 3.456 h -16.896 q 0.096,3.024 1.776,4.752 1.728,1.728 4.752,1.728 2.544,0 4.608,-0.48 2.064,-0.528 4.272,-1.584 v 5.52 q -1.92,0.96 -4.08,1.392 -2.112,0.48 -5.136,0.48 -3.936,0 -6.96,-1.44 -3.024,-1.488 -4.752,-4.464 -1.728,-2.976 -1.728,-7.488 0,-4.608 1.536,-7.632 1.584,-3.072 4.368,-4.608 2.784,-1.536 6.48,-1.536 z m 0.048,5.088 q -2.064,0 -3.456,1.344 -1.344,1.344 -1.584,4.176 h 10.032 q -0.048,-2.4 -1.248,-3.936 -1.2,-1.584 -3.744,-1.584 z"
       id="path230" />
    <path
       d="m 368.93988,273.312 q 0.528,0 1.248,0.048 0.72,0.048 1.152,0.144 l -0.528,6.72 q -0.336,-0.096 -1.008,-0.144 -0.624,-0.096 -1.104,-0.096 -1.824,0 -3.504,0.672 -1.68,0.624 -2.736,2.064 -1.008,1.44 -1.008,3.936 V 300 h -7.152 v -26.208 h 5.424 l 1.056,4.416 h 0.336 q 1.152,-2.016 3.168,-3.456 2.016,-1.44 4.656,-1.44 z"
       id="path232" />
  </g>
  <!-- Tagline pleine largeur -->
  <g
     aria-label="SPEAK · AI-REFINED · PASTE"
     id="text98"
     style="font-weight:600;font-size:16px;font-family:'note sans', ubuntu, inter, monospace;letter-spacing:5;text-anchor:middle;opacity:0.85;fill:#00ee77">
    <path
       d="m 38.124848,330.224 q -1.392,0 -2.288,-0.288 -0.88,-0.288 -1.248,-0.512 l 0.56,-1.552 q 0.416,0.224 1.152,0.48 0.736,0.24 1.824,0.24 1.152,0 1.664,-0.384 0.512,-0.4 0.512,-1.12 0,-0.56 -0.304,-0.896 -0.288,-0.352 -0.848,-0.608 -0.544,-0.272 -1.328,-0.56 -0.8,-0.304 -1.488,-0.672 -0.688,-0.384 -1.104,-0.976 -0.4,-0.608 -0.4,-1.568 0,-0.992 0.464,-1.696 0.48,-0.704 1.344,-1.072 0.864,-0.384 2.048,-0.384 1.04,0 1.84,0.24 0.816,0.24 1.296,0.528 l -0.576,1.536 q -0.464,-0.288 -1.088,-0.464 -0.608,-0.192 -1.392,-0.192 -0.944,0 -1.472,0.336 -0.512,0.32 -0.512,1.024 0,0.512 0.288,0.832 0.288,0.32 0.768,0.544 0.496,0.224 1.12,0.464 1.04,0.384 1.776,0.816 0.752,0.416 1.152,1.056 0.4,0.64 0.4,1.696 0,1.008 -0.48,1.728 -0.48,0.704 -1.408,1.072 -0.928,0.352 -2.272,0.352 z"
       id="path235" />
    <path
       d="m 49.236853,330 v -10.912 q 0.72,-0.16 1.568,-0.224 0.864,-0.064 1.552,-0.064 2.416,0 3.664,0.896 1.264,0.88 1.264,2.72 0,1.296 -0.592,2.112 -0.592,0.8 -1.728,1.168 -1.12,0.352 -2.72,0.352 h -1.088 V 330 Z m 1.92,-5.584 h 1.024 q 0.992,0 1.696,-0.176 0.704,-0.176 1.056,-0.608 0.368,-0.448 0.368,-1.232 0,-0.784 -0.384,-1.2 -0.368,-0.416 -1.024,-0.592 -0.64,-0.176 -1.424,-0.176 -0.416,0 -0.752,0.032 -0.32,0.032 -0.56,0.048 z"
       id="path237" />
    <path
       d="m 64.20484,330 v -11.088 h 7.04 v 1.616 h -5.12 v 2.864 h 4.56 v 1.6 h -4.56 v 3.392 h 5.504 V 330 Z"
       id="path239" />
    <path
       d="m 77.491818,330 q 0.848,-2.352 1.568,-4.272 0.72,-1.92 1.408,-3.584 0.704,-1.664 1.472,-3.232 h 1.792 q 0.56,1.184 1.088,2.416 0.544,1.216 1.072,2.56 0.528,1.328 1.088,2.832 0.576,1.504 1.2,3.28 h -2.064 q -0.224,-0.672 -0.464,-1.328 -0.24,-0.672 -0.464,-1.328 h -4.768 q -0.224,0.656 -0.48,1.328 -0.24,0.656 -0.448,1.328 z m 3.408,-4.208 h 3.792 q -0.272,-0.768 -0.544,-1.456 -0.256,-0.704 -0.512,-1.312 -0.24,-0.624 -0.464,-1.152 -0.208,-0.544 -0.384,-0.96 -0.176,0.416 -0.384,0.96 -0.208,0.528 -0.464,1.152 -0.24,0.608 -0.512,1.312 -0.256,0.688 -0.528,1.456 z"
       id="path241" />
    <path
       d="m 94.683813,330 v -11.088 h 1.92 v 4.592 q 0.528,-0.528 1.12,-1.136 0.608,-0.608 1.2,-1.216 0.592,-0.624 1.119997,-1.2 0.528,-0.576 0.944,-1.04 h 2.272 q -0.528,0.592 -1.136,1.248 -0.592,0.656 -1.248,1.344 -0.64,0.672 -1.295997,1.328 -0.64,0.64 -1.248,1.232 0.688,0.496 1.408,1.184 0.719997,0.672 1.407997,1.472 0.704,0.784 1.312,1.632 0.624,0.832 1.104,1.648 h -2.24 q -0.416,-0.656 -0.976,-1.36 -0.543997,-0.704 -1.167997,-1.376 -0.624,-0.688 -1.28,-1.264 -0.656,-0.592 -1.296,-1.008 V 330 Z"
       id="path243" />
    <path
       d="m 119.45183,326.528 q -0.512,0 -0.88,-0.336 -0.352,-0.336 -0.352,-0.896 0,-0.56 0.352,-0.896 0.368,-0.336 0.88,-0.336 0.512,0 0.864,0.336 0.368,0.336 0.368,0.896 0,0.56 -0.368,0.896 -0.352,0.336 -0.864,0.336 z"
       id="path245" />
    <path
       d="m 135.33984,330 q 0.848,-2.352 1.568,-4.272 0.72,-1.92 1.408,-3.584 0.704,-1.664 1.472,-3.232 h 1.792 q 0.56,1.184 1.088,2.416 0.544,1.216 1.072,2.56 0.528,1.328 1.088,2.832 0.576,1.504 1.2,3.28 h -2.064 q -0.224,-0.672 -0.464,-1.328 -0.24,-0.672 -0.464,-1.328 h -4.768 q -0.224,0.656 -0.48,1.328 -0.24,0.656 -0.448,1.328 z m 3.408,-4.208 h 3.792 q -0.272,-0.768 -0.544,-1.456 -0.256,-0.704 -0.512,-1.312 -0.24,-0.624 -0.464,-1.152 -0.208,-0.544 -0.384,-0.96 -0.176,0.416 -0.384,0.96 -0.208,0.528 -0.464,1.152 -0.24,0.608 -0.512,1.312 -0.256,0.688 -0.528,1.456 z"
       id="path247" />
    <path
       d="m 152.53184,330 v -11.088 h 1.92 V 330 Z"
       id="path249" />
    <path
       d="m 161.21184,326.128 v -1.696 h 4.224 v 1.696 z"
       id="path251" />
    <path
       d="m 172.19584,330 v -10.912 q 0.72,-0.16 1.552,-0.224 0.832,-0.064 1.504,-0.064 2.4,0 3.664,0.88 1.264,0.88 1.264,2.672 0,1.2 -0.592,1.936 -0.576,0.72 -1.616,1.088 0.32,0.384 0.688,0.928 0.384,0.528 0.768,1.152 0.4,0.608 0.768,1.264 0.368,0.656 0.656,1.28 h -2.128 q -0.416,-0.784 -0.896,-1.568 -0.48,-0.784 -0.944,-1.472 -0.464,-0.704 -0.88,-1.2 -0.112,0 -0.224,0.016 -0.096,0 -0.208,0 h -1.456 V 330 Z m 1.92,-5.776 h 1.024 q 0.976,0 1.648,-0.144 0.688,-0.16 1.04,-0.576 0.368,-0.416 0.368,-1.168 0,-0.736 -0.352,-1.136 -0.352,-0.416 -0.992,-0.592 -0.64,-0.176 -1.456,-0.176 -0.416,0 -0.736,0.032 -0.304,0.032 -0.544,0.048 z"
       id="path253" />
    <path
       d="m 187.54783,330 v -11.088 h 7.04 v 1.616 h -5.12 v 2.864 h 4.56 v 1.6 h -4.56 v 3.392 h 5.504 V 330 Z"
       id="path255" />
    <path
       d="m 201.90781,330 v -11.088 h 6.976 v 1.616 h -5.056 v 2.976 h 4.496 v 1.632 h -4.496 V 330 Z"
       id="path257" />
    <path
       d="m 215.73981,330 v -11.088 h 1.92 V 330 Z"
       id="path259" />
    <path
       d="m 225.34781,330 v -11.088 h 1.552 q 0.528,0.544 1.12,1.264 0.592,0.72 1.2,1.52 0.608,0.8 1.2,1.648 0.608,0.832 1.136,1.632 0.544,0.784 0.976,1.488 v -7.552 h 1.904 V 330 h -1.6 q -0.4,-0.72 -0.912,-1.552 -0.512,-0.832 -1.104,-1.712 -0.576,-0.88 -1.184,-1.744 -0.608,-0.864 -1.216,-1.648 -0.608,-0.8 -1.168,-1.456 V 330 Z"
       id="path261" />
    <path
       d="m 242.13981,330 v -11.088 h 7.04 v 1.616 h -5.12 v 2.864 h 4.56 v 1.6 h -4.56 v 3.392 h 5.504 V 330 Z"
       id="path263" />
    <path
       d="m 259.57179,330.128 q -0.672,0 -1.504,-0.064 -0.832,-0.064 -1.568,-0.224 v -10.752 q 0.736,-0.16 1.584,-0.224 0.864,-0.064 1.536,-0.064 1.856,0 3.248,0.592 1.408,0.592 2.192,1.84 0.784,1.248 0.784,3.216 0,1.904 -0.784,3.168 -0.768,1.264 -2.176,1.888 -1.408,0.624 -3.312,0.624 z m 0.128,-1.648 q 2.08,0 3.104,-1.072 1.04,-1.088 1.04,-2.96 0,-1.92 -1.008,-2.96 -0.992,-1.056 -3.088,-1.056 -0.496,0 -0.832,0.032 -0.32,0.032 -0.496,0.048 v 7.888 q 0.144,0.016 0.432,0.048 0.304,0.032 0.848,0.032 z"
       id="path265" />
    <path
       d="m 282.4518,326.528 q -0.512,0 -0.88,-0.336 -0.352,-0.336 -0.352,-0.896 0,-0.56 0.352,-0.896 0.368,-0.336 0.88,-0.336 0.512,0 0.864,0.336 0.368,0.336 0.368,0.896 0,0.56 -0.368,0.896 -0.352,0.336 -0.864,0.336 z"
       id="path267" />
    <path
       d="m 299.52381,330 v -10.912 q 0.72,-0.16 1.568,-0.224 0.864,-0.064 1.552,-0.064 2.416,0 3.664,0.896 1.264,0.88 1.264,2.72 0,1.296 -0.592,2.112 -0.592,0.8 -1.728,1.168 -1.12,0.352 -2.72,0.352 h -1.088 V 330 Z m 1.92,-5.584 h 1.024 q 0.992,0 1.696,-0.176 0.704,-0.176 1.056,-0.608 0.368,-0.448 0.368,-1.232 0,-0.784 -0.384,-1.2 -0.368,-0.416 -1.024,-0.592 -0.64,-0.176 -1.424,-0.176 -0.416,0 -0.752,0.032 -0.32,0.032 -0.56,0.048 z"
       id="path269" />
    <path
       d="m 312.4122,330 q 0.848,-2.352 1.568,-4.272 0.72,-1.92 1.408,-3.584 0.704,-1.664 1.472,-3.232 h 1.792 q 0.56,1.184 1.088,2.416 0.544,1.216 1.072,2.56 0.528,1.328 1.088,2.832 0.576,1.504 1.2,3.28 h -2.064 q -0.224,-0.672 -0.464,-1.328 -0.24,-0.672 -0.464,-1.328 h -4.768 q -0.224,0.656 -0.48,1.328 -0.24,0.656 -0.448,1.328 z m 3.408,-4.208 h 3.792 q -0.272,-0.768 -0.544,-1.456 -0.256,-0.704 -0.512,-1.312 -0.24,-0.624 -0.464,-1.152 -0.208,-0.544 -0.384,-0.96 -0.176,0.416 -0.384,0.96 -0.208,0.528 -0.464,1.152 -0.24,0.608 -0.512,1.312 -0.256,0.688 -0.528,1.456 z"
       id="path271" />
    <path
       d="m 332.65399,330.224 q -1.392,0 -2.288,-0.288 -0.88,-0.288 -1.248,-0.512 l 0.56,-1.552 q 0.416,0.224 1.152,0.48 0.736,0.24 1.824,0.24 1.152,0 1.664,-0.384 0.512,-0.4 0.512,-1.12 0,-0.56 -0.304,-0.896 -0.288,-0.352 -0.848,-0.608 -0.544,-0.272 -1.328,-0.56 -0.8,-0.304 -1.488,-0.672 -0.688,-0.384 -1.104,-0.976 -0.4,-0.608 -0.4,-1.568 0,-0.992 0.464,-1.696 0.48,-0.704 1.344,-1.072 0.864,-0.384 2.048,-0.384 1.04,0 1.84,0.24 0.816,0.24 1.296,0.528 l -0.576,1.536 q -0.464,-0.288 -1.088,-0.464 -0.608,-0.192 -1.392,-0.192 -0.944,0 -1.472,0.336 -0.512,0.32 -0.512,1.024 0,0.512 0.288,0.832 0.288,0.32 0.768,0.544 0.496,0.224 1.12,0.464 1.04,0.384 1.776,0.816 0.752,0.416 1.152,1.056 0.4,0.64 0.4,1.696 0,1.008 -0.48,1.728 -0.48,0.704 -1.408,1.072 -0.928,0.352 -2.272,0.352 z"
       id="path273" />
    <path
       d="m 345.97917,330 v -9.456 h -3.44 v -1.632 h 8.784 v 1.632 h -3.424 V 330 Z"
       id="path275" />
    <path
       d="m 357.97117,330 v -11.088 h 7.04 v 1.616 h -5.12 v 2.864 h 4.56 v 1.6 h -4.56 v 3.392 h 5.504 V 330 Z"
       id="path277" />
  </g>
</svg>
